HIERARCHY
ROOT root
{
	OFFSET 0.000000 0.000000 0.000000
	CHANNELS 6 Xposition Yposition Zposition Zrotation Yrotation Xrotation
	JOINT lhip
	{
		OFFSET 0.058581 -0.082280 -0.017664
		CHANNELS 3 Zrotation Yrotation Xrotation
		JOINT lknee
		{
			OFFSET 0.043451 -0.386469 0.008037
			CHANNELS 3 Zrotation Yrotation Xrotation
			JOINT lankle
			{
				OFFSET -0.014790 -0.426874 -0.037428
				CHANNELS 3 Zrotation Yrotation Xrotation
				JOINT ltoe
				{
					OFFSET 0.041054 -0.060286 0.122042
					CHANNELS 3 Zrotation Yrotation Xrotation
					End Site
					{
						OFFSET 0.000000 0.000000 0.000000
					}
				}
			}
		}
	}
	JOINT rhip
	{
		OFFSET -0.060310 -0.090513 -0.013543
		CHANNELS 3 Zrotation Yrotation Xrotation
		JOINT rknee
		{
			OFFSET -0.043257 -0.383688 -0.004843
			CHANNELS 3 Zrotation Yrotation Xrotation
			JOINT rankle
			{
				OFFSET 0.019056 -0.420046 -0.034562
				CHANNELS 3 Zrotation Yrotation Xrotation
				JOINT rtoe
				{
					OFFSET -0.034840 -0.062106 0.130323
					CHANNELS 3 Zrotation Yrotation Xrotation
					End Site
					{
						OFFSET 0.000000 0.000000 0.000000
					}
				}
			}
		}
	}
	JOINT lowerback
	{
		OFFSET 0.004439 0.124404 -0.038385
		CHANNELS 3 Zrotation Yrotation Xrotation
		JOINT upperback
		{
			OFFSET 0.004488 0.137956 0.026820
			CHANNELS 3 Zrotation Yrotation Xrotation
			JOINT chest
			{
				OFFSET -0.002265 0.056032 0.002855
				CHANNELS 3 Zrotation Yrotation Xrotation
				JOINT lowerneck
				{
					OFFSET -0.013390 0.211636 -0.033468
					CHANNELS 3 Zrotation Yrotation Xrotation
					JOINT upperneck
					{
						OFFSET 0.010113 0.088937 0.050410
						CHANNELS 3 Zrotation Yrotation Xrotation
						End Site
						{
							OFFSET 0.000000 0.000000 0.000000
						}
					}
				}
				JOINT lclavicle
				{
					OFFSET 0.071702 0.114000 -0.018898
					CHANNELS 3 Zrotation Yrotation Xrotation
					JOINT lshoulder
					{
						OFFSET 0.122921 0.045205 -0.019046
						CHANNELS 3 Zrotation Yrotation Xrotation
						JOINT lelbow
						{
							OFFSET 0.255332 -0.015649 -0.022946
							CHANNELS 3 Zrotation Yrotation Xrotation
							JOINT lwrist
							{
								OFFSET 0.265709 0.012698 -0.007375
								CHANNELS 3 Zrotation Yrotation Xrotation
								End Site
								{
									OFFSET 0.000000 0.000000 0.000000
								}
							}
						}
					}
				}
				JOINT rclavicle
				{
					OFFSET -0.082954 0.112472 -0.023707
					CHANNELS 3 Zrotation Yrotation Xrotation
					JOINT rshoulder
					{
						OFFSET -0.113228 0.046853 -0.008472
						CHANNELS 3 Zrotation Yrotation Xrotation
						JOINT relbow
						{
							OFFSET -0.260127 -0.014369 -0.031269
							CHANNELS 3 Zrotation Yrotation Xrotation
							JOINT rwrist
							{
								OFFSET -0.269108 0.006794 -0.006027
								CHANNELS 3 Zrotation Yrotation Xrotation
								End Site
								{
									OFFSET 0.000000 0.000000 0.000000
								}
							}
						}
					}
				}
			}
		}
	}
}
MOTION
Frames: 13
Frame Time: 0.033333
-0.044314 -0.686416 0.980591 178.811080 -0.137688 90.232929 -1.070180 0.383642 3.568436 -5.701901 -3.421745 -0.903858 4.396232 4.704290 -18.600297 0.000000 -0.000000 0.000000 -5.063345 -0.010296 -17.906743 -2.411263 -6.643038 20.302837 6.527879 -0.034279 -11.994531 0.000000 -0.000000 0.000000 -0.753605 1.119414 1.494460 1.323970 1.498507 3.622749 -1.324983 -1.615205 1.431178 3.875389 0.731182 5.034543 2.768112 -3.652183 0.219450 -22.898226 -1.086973 2.496864 -59.505548 -6.851119 29.138539 -157.787663 -71.822592 -177.374126 27.595081 -8.350688 -8.604958 19.637763 5.107083 2.097615 62.925580 4.579553 31.412703 141.734897 78.133336 153.141155 -12.272377 6.737659 -36.198050 
-0.049018 -0.692456 0.980256 178.785052 0.009032 89.936470 -1.176645 0.517641 3.600164 -5.833575 -3.981398 -1.180262 4.717257 5.142779 -18.355593 0.000000 -0.000000 0.000000 -5.150579 0.290154 -18.798859 -2.176466 -5.748627 22.200113 6.708434 -1.073886 -13.627885 0.000000 -0.000000 0.000000 -0.852656 0.908964 2.063282 1.272972 1.774990 3.349197 -1.499236 -1.483104 2.194340 4.672457 1.142701 3.544794 2.345921 -4.493929 2.025259 -22.806725 -0.133298 2.112079 -58.552018 -7.705890 27.769948 -151.734705 -70.859013 176.275792 25.700256 -8.917981 -9.386070 20.093284 4.567371 1.554995 62.997849 4.383281 31.763922 142.016913 78.601304 153.640496 -10.773593 6.916966 -36.136791 
-0.053259 -0.697747 0.980850 179.022479 0.109154 89.730923 -1.385831 0.540898 3.409346 -5.821696 -4.095506 -1.163995 4.765034 4.985152 -18.181540 0.000000 -0.000000 0.000000 -5.245765 0.379325 -19.686669 -2.262388 -5.850300 24.478320 6.533339 -1.723994 -15.268002 0.000000 -0.000000 0.000000 -0.887661 0.715445 2.308149 1.279500 1.745189 3.473780 -1.641634 -1.618789 2.400147 4.891224 1.006266 2.591490 1.973446 -5.271156 3.615578 -22.765883 -0.241510 2.304299 -58.430576 -7.812978 27.518575 -151.757442 -70.875830 176.358893 25.322443 -9.163036 -9.445403 20.176499 4.609799 1.495059 63.160072 4.234213 31.688856 141.245409 79.123786 153.257477 -9.241640 6.926665 -36.041140 
-0.057636 -0.703113 0.982526 179.782741 0.392755 89.383435 -1.385170 0.353159 3.530245 -5.769536 -4.466386 -1.487947 4.730615 4.559381 -17.971040 0.000000 -0.000000 0.000000 -5.216154 0.257846 -20.092295 -2.241264 -6.717053 28.111907 6.495015 -2.550379 -17.367075 0.000000 -0.000000 0.000000 -0.991788 0.370582 2.192773 1.387823 1.546768 4.198376 -1.774654 -1.704364 2.657799 5.317897 0.894217 1.602497 1.455092 -6.154033 4.948730 -22.802656 -0.528770 2.211105 -58.214393 -8.042812 27.661872 -152.070848 -70.884983 176.626335 25.045674 -9.522470 -8.946157 20.401324 4.608781 1.352372 63.148092 3.873302 31.473927 141.616633 79.687476 154.090436 -7.433674 7.168840 -35.361214 
-0.059434 -0.705069 0.983085 179.955559 0.427762 89.361773 -1.560137 0.217818 3.482344 -5.607808 -4.589274 -1.625263 4.732811 4.664387 -17.773684 0.000000 -0.000000 0.000000 -5.308687 0.365844 -20.315741 -2.177339 -6.955667 29.513106 6.440958 -2.828866 -17.614560 0.000000 -0.000000 0.000000 -0.984512 0.247292 2.235293 1.378072 1.563906 4.221401 -1.835309 -1.695089 2.687969 5.373255 0.880816 1.626972 1.465208 -6.233247 4.965704 -22.885208 -0.604092 2.200061 -58.145309 -8.120304 27.772789 -152.358401 -70.828075 176.961118 25.094833 -9.573098 -8.866001 20.465253 4.627980 1.337899 62.876316 3.849840 31.421241 141.621416 79.652413 154.140797 -7.530569 7.186258 -35.558344 
-0.060875 -0.707442 0.983704 -179.499627 0.527351 89.144562 -1.543424 0.063431 3.643831 -5.578539 -4.833132 -1.814295 4.743834 4.479769 -17.581288 0.000000 -0.000000 0.000000 -5.120505 0.354992 -20.240689 -2.196109 -7.076593 32.217258 6.147646 -3.149488 -18.370182 0.000000 -0.000000 0.000000 -1.345286 0.168326 2.105906 1.551135 1.442162 4.643319 -1.795327 -1.813770 2.707080 5.621182 0.670766 1.587394 1.689371 -6.609686 5.136723 -22.700032 -0.803855 2.137428 -58.181403 -8.298312 27.879528 -152.901537 -70.613834 177.604264 25.135686 -9.434089 -9.162898 20.501766 4.656662 1.236330 62.791801 3.594586 31.434641 143.784551 79.655998 156.456149 -7.164396 7.213079 -35.382805 
-0.062722 -0.709557 0.984447 -179.110824 0.593673 88.920631 -1.594894 -0.033340 3.964188 -5.543747 -5.134619 -2.220511 4.672911 4.504074 -17.439553 0.000000 -0.000000 0.000000 -5.069257 0.684405 -19.751620 -1.994313 -6.856648 34.265888 6.115832 -3.172205 -19.183797 0.000000 -0.000000 0.000000 -1.454590 -0.006135 2.312720 1.614455 1.476196 4.483668 -1.870858 -1.834565 2.754588 5.806555 0.649034 1.485768 1.682125 -6.790357 5.479202 -22.729028 -0.908720 2.009504 -58.126100 -8.359198 28.055030 -153.484350 -70.522382 177.933939 25.376031 -9.578409 -9.725772 20.402966 4.644158 0.928659 62.525943 3.456635 31.529474 143.437852 79.571220 155.939330 -7.346996 7.333099 -35.799783 
-0.063988 -0.711170 0.984550 -178.640777 0.527063 89.181993 -1.714274 -0.376927 3.784162 -5.583945 -5.261746 -2.606781 4.695594 4.454412 -17.268901 0.000000 -0.000000 0.000000 -5.024780 1.050231 -19.596043 -1.806097 -6.320875 35.852747 5.983475 -3.283737 -20.008529 0.000000 -0.000000 0.000000 -1.708205 -0.165885 1.647690 1.661928 1.317216 4.713007 -1.893426 -1.754688 2.720528 5.898885 0.722447 1.446672 1.617554 -6.937560 5.476265 -22.708328 -0.915553 1.875432 -58.118059 -8.493658 28.279654 -154.283381 -70.445570 178.420703 25.370953 -9.310175 -9.861193 20.445927 4.709436 0.887641 62.262108 3.540868 31.696917 144.285609 79.631977 156.591713 -7.045048 7.252524 -36.269253 
-0.065054 -0.712844 0.984528 -178.340994 0.500037 89.322834 -1.789260 -0.549264 3.693112 -5.606343 -5.356122 -2.915100 4.596094 4.357858 -17.063814 0.000000 -0.000000 0.000000 -4.920353 1.240596 -18.882464 -1.556844 -5.853025 36.116674 6.033377 -2.767008 -20.915416 0.000000 -0.000000 0.000000 -1.787646 0.009572 1.351716 1.743595 1.324723 4.694035 -1.958259 -1.905693 2.645595 5.943122 0.718021 1.276333 1.384495 -7.085367 5.713697 -22.698779 -1.097998 1.786867 -58.228585 -8.595126 28.418186 -154.814365 -70.583134 179.018073 25.418265 -9.349139 -9.556429 20.305028 4.733315 0.617015 61.957606 3.755488 31.700366 143.364267 79.497237 155.577505 -6.820548 7.407614 -37.167386 
-0.065498 -0.713693 0.984554 -177.981744 0.416209 89.765098 -1.858784 -0.743041 3.259339 -5.646192 -5.336640 -3.108441 4.460527 4.102850 -16.930501 0.000000 -0.000000 0.000000 -4.752374 1.115839 -17.951994 -1.474470 -5.550639 34.855645 6.147575 -2.287808 -21.549774 0.000000 -0.000000 0.000000 -1.826433 0.101916 0.676734 1.655097 1.115847 4.461753 -2.041643 -1.884000 2.631671 5.893346 0.924392 1.362350 1.427130 -7.073048 5.770387 -22.655535 -1.082289 1.751996 -58.198408 -8.560599 28.439269 -154.840189 -70.686857 179.172211 25.626562 -9.510093 -9.354870 20.228644 4.728961 0.606937 61.969764 3.945703 31.726424 143.189013 79.349643 155.474083 -6.740126 7.345560 -37.429446 
-0.065396 -0.714034 0.984704 -177.722932 0.343420 89.998442 -1.902464 -0.842872 2.982246 -5.637220 -5.309603 -3.092117 4.343262 3.808821 -16.956625 0.000000 -0.000000 0.000000 -4.421272 0.905000 -16.321119 -1.543057 -5.230364 32.256607 6.577580 -1.554562 -21.254872 0.000000 -0.000000 0.000000 -1.766770 0.311338 0.251136 1.501871 0.916268 4.240362 -2.091104 -1.815270 2.517947 5.655369 0.919888 1.420325 1.530187 -7.168078 5.933541 -22.549905 -1.198528 1.708782 -58.360653 -8.444193 28.392139 -154.566454 -70.794039 178.885632 26.155251 -9.493270 -9.283842 19.991545 4.857567 0.684236 62.251126 4.084893 31.678624 142.668627 79.116587 155.255363 -7.447865 6.936343 -36.976758 
-0.064766 -0.714245 0.984373 -177.737282 0.172465 90.346068 -2.015024 -1.032856 2.554332 -5.657609 -5.016882 -3.030885 4.377774 3.667543 -16.878261 0.000000 -0.000000 0.000000 -4.158926 0.617524 -14.709369 -1.563100 -4.845555 28.870003 6.815841 -0.817324 -20.035149 0.000000 -0.000000 0.000000 -1.603259 0.496829 -0.112724 1.139834 0.781897 3.768052 -2.197746 -1.593541 2.407921 5.519292 0.745254 1.771014 1.512500 -6.891261 5.788887 -22.329802 -1.144129 1.594618 -58.534265 -8.304125 28.382158 -154.280102 -70.619378 178.519787 26.874124 -9.122200 -9.641427 19.636716 5.011783 0.745413 62.727227 4.321097 32.026185 140.510452 78.904949 153.583830 -9.602801 6.339012 -34.937063 
-0.063309 -0.713815 0.983831 -177.694700 -0.015848 90.680610 -2.034304 -1.155533 2.108561 -5.767942 -4.772789 -2.817128 4.299277 3.367312 -16.825140 0.000000 -0.000000 0.000000 -3.792164 -0.014953 -13.074608 -2.210123 -5.054279 25.137104 6.373240 -1.175250 -19.589602 0.000000 -0.000000 0.000000 -1.579049 0.819434 -0.669986 0.822793 0.647897 3.517446 -2.255036 -1.510806 2.302325 5.320882 0.681895 2.012268 1.766074 -6.763331 5.842466 -22.086841 -1.165966 1.616939 -58.694286 -8.283197 28.286522 -154.179345 -70.456375 178.654608 27.434523 -8.872586 -9.654394 19.326661 5.240647 0.889937 63.288784 4.514258 32.223119 140.146851 78.840316 153.305393 -10.782488 5.914608 -34.412922 
